# xmcd
#
# Track frame offsets:
#	150
#	18630
#	36671
#	50305
#	65096
#
# Disc length: 1017 seconds
#
# Revision: 1
# Processed by: cddbd v1.5.2PL0 Copyright (c) Steve Scherf et al.
# Submitted via: audiograbber 1.83.01
#
DISCID=4603f705
DTITLE=Green Mohair Suits - Baby You Just Want To Give Up
DYEAR=2013
DGENRE=Country
TTITLE0=Baby You Just Want To Give Up
TTITLE1=Gardening In My Underwear
TTITLE2=Because We Can
TTITLE3=I Told You I Would Leave
TTITLE4=We ll Surely Die
EXTD=
EXTT0=
EXTT1=
EXTT2=
EXTT3=
EXTT4=
PLAYORDER=
